PathFileType	4	(X/Y/Z)	RBDS017\RBDS017runT45.trc
DataRate	CameraRate	NumFrames	NumMarkers	Units	OrigDataRate	OrigDataStartFrame	OrigNumFrames
150.000000	150.000000	6	33	mm	150.000000	1687	4500
Frame#	Time	L.ASIS			L.Heel.Bottom			L.Heel.Lateral			L.Heel.Top			L.Iliac.Crest			L.MT1			L.MT5			L.PSIS			L.Shank.Bottom.Lateral			L.Shank.Bottom.Medial			L.Shank.Top.Lateral			L.Shank.Top.Medial			L.Thigh.Bottom.Lateral			L.Thigh.Bottom.Medial			L.Thigh.Top.Lateral			L.Thigh.Top.Medial			R.ASIS			R.ASY			R.Heel.Bottom			R.Heel.Lateral			R.Heel.Top			R.Iliac.Crest			R.MT1			R.MT5			R.PSIS			R.Shank.Bottom.Lateral			R.Shank.Bottom.Medial			R.Shank.Top.Lateral			R.Shank.Top.Medial			R.Thigh.Bottom.Lateral			R.Thigh.Bottom.Medial			R.Thigh.Top.Lateral			R.Thigh.Top.Medial			
		X1	Y1	Z1	X2	Y2	Z2	X3	Y3	Z3	X4	Y4	Z4	X5	Y5	Z5	X6	Y6	Z6	X7	Y7	Z7	X8	Y8	Z8	X9	Y9	Z9	X10	Y10	Z10	X11	Y11	Z11	X12	Y12	Z12	X13	Y13	Z13	X14	Y14	Z14	X15	Y15	Z15	X16	Y16	Z16	X17	Y17	Z17	X18	Y18	Z18	X19	Y19	Z19	X20	Y20	Z20	X21	Y21	Z21	X22	Y22	Z22	X23	Y23	Z23	X24	Y24	Z24	X25	Y25	Z25	X26	Y26	Z26	X27	Y27	Z27	X28	Y28	Z28	X29	Y29	Z29	X30	Y30	Z30	X31	Y31	Z31	X32	Y32	Z32	X33	Y33	Z33	

1688	11.24666666666667	2173.755856298923	1018.027490498821	838.875491579984	2152.563969224624	30.45369736810551	952.4370233192427	2169.33530397072	48.07301814864859	913.7307968006386	2163.556751014618	74.72927989464755	954.2634534115766	2097.00412513561	1105.165947230283	804.4740686750073	2383.363295744163	49.87791538777135	956.7401399606812	2330.870762991669	36.32779186684841	853.1636615196257	2011.597556273065	1083.113118078633	948.1321737756581	2229.822085761838	178.8006931490823	881.3099432005688	2187.646009663612	185.6398832028746	915.6507516749357	2225.327981680103	256.404642651424	861.4309291558324	2183.856157823846	263.7654340520706	894.9069745693073	2218.20978625492	653.9295481840585	811.190584563165	2165.28976903103	625.7323601086879	851.2740870557633	2159.183280648699	746.4989141768074	801.8395230896671	2109.456260244621	720.6082195903355	840.2310713471063	2191.380416726299	996.4988885489289	1119.240485470235	1552.812275475238	489.5218658236519	1043.586831823517	1628.401877226068	678.0416115807726	1000.050063442011	1622.436449448539	657.4202388189293	1047.789787107197	1659.047586004371	644.9977784260487	1016.655914221498	2164.421571315143	1093.667616301494	1154.675572656823	1524.050504420425	476.4504087782187	992.8394532584156	1509.883069358722	539.4870627497928	1089.274170792518	2025.204403439442	1077.463052918893	1048.124626660258	1719.908847222693	579.0915738785678	1091.657009032907	1733.620969595335	610.5581216924209	1053.832346309053	1801.863882016111	569.4610071509406	1111.312843175349	1812.080303488807	604.7449014363211	1073.060159698257	2054.939894064632	609.1333909543999	1158.605107380656	2001.815085930358	608.7971603165827	1107.467663467234	2047.348328047719	718.683358915909	1161.939574015906	1997.935508057932	718.7911697773203	1112.861739845038	
1689	11.25333333333333	2170.681225976719	1013.723973135461	837.1427263394115	2122.923555464274	31.50104169473912	953.6527976104292	2140.166497811362	50.05177697474262	915.5709328703731	2135.156499788846	75.7402960758033	956.9042664780728	2094.752560104961	1099.77444047359	803.8830677680374	2354.706415413222	46.26756769492976	958.7850410980619	2301.301104541913	36.31218219990028	854.4967384858144	2009.199223043314	1080.118292062472	948.7621890506322	2208.496158063106	178.0630869440527	884.1469549353353	2165.770053600144	187.4973997404749	917.3858016258268	2208.480102325657	255.7792511631709	863.3713015848673	2166.58120467146	265.6505089688418	895.8519211654391	2214.884941292765	651.3457806138405	811.1083749341556	2161.959460063327	623.214415938431	851.2793723119671	2155.97061466969	743.9621551841183	801.5794847432821	2106.083521994832	718.0883360990985	839.9171408801599	2189.529347734907	990.9970443115787	1117.822198437501	1571.901475411376	490.9219000601033	1044.277009171361	1647.924500967789	679.485973734194	1002.912956261142	1642.097914582942	658.2412666076633	1050.20921911913	1678.489752747209	646.1834435902293	1018.958319280962	2164.371384363203	1087.169268010378	1153.961374228989	1542.868567467554	478.5720908159986	993.529195006997	1529.398253193337	540.3628915793115	1090.835871893915	2022.722211772849	1073.615312841449	1048.287418243955	1739.482416465057	578.8736702190454	1093.519502102829	1753.833270383373	610.0833040744731	1055.62083816078	1821.362089789259	567.5875967763391	1113.010923383524	1832.281780185674	602.7317716974345	1074.782118104876	2067.076437672243	604.4031301733841	1160.518291171233	2013.331212020358	601.5433998559216	1110.245680873017	2055.281507261721	713.6433757807043	1163.109543710242	2005.500280025077	711.3269531210819	1114.564700790802	
1690	11.26	2167.544297658734	1009.914845169836	835.1950708112397	2093.130955979656	32.52995316720681	954.7557261959487	2110.704651784853	51.93582563784718	917.1947272627782	2106.206930206268	76.73896431671746	959.1802480378311	2092.196319035355	1095.15201205919	803.3087782918969	2325.430658144263	44.15145054579586	960.3102871788685	2271.345260799414	36.94471967778863	855.6037874381287	2006.801447801401	1077.769159922439	949.1050595670583	2186.051246178085	177.7137705727993	886.6595390695636	2143.004751194307	189.5991306929527	918.9190744248848	2190.292172049667	255.3497194855622	865.1920223352528	2148.181344360076	267.5799824576727	896.7894948774976	2210.388652892398	648.5550468537368	811.2048301599082	2157.279235657622	620.7844383148891	851.4168679529698	2152.07116241215	741.5066987456527	801.4131228802361	2101.890329543215	715.9321746627005	839.6681240517578	2187.310727508476	986.1524737971596	1116.491113959309	1591.735424549785	490.1164571228955	1044.780902731502	1666.88622210447	679.4167721304236	1006.569682210571	1661.387295505563	657.2672945836783	1053.267367182556	1697.615889036452	646.0369365210735	1021.866052333271	2163.352694400955	1081.539576045626	1153.368164009897	1562.476302737177	478.58062313376	993.9682620392483	1549.296792042752	538.4946259297706	1092.398610320534	2020.062458988064	1070.539522072757	1048.121842824724	1759.266754371895	577.4903091073481	1095.594695171479	1773.966119067863	608.7063375764661	1057.738952951385	1841.150956620472	565.1200578663075	1114.810102127806	1852.441034919764	600.358120716132	1076.759530540853	2080.062250954162	600.9266879551128	1162.112223248663	2025.759494029494	595.3958905066642	1112.840135474606	2063.767339166145	709.6012334858606	1164.072769106227	2013.613347237894	704.7339562251036	1116.230967896511	
1691	11.26666666666667	2164.497308290403	1006.674039515218	833.132941689491	2063.263364778927	33.43577885789965	955.6728180763679	2081.038723803113	53.57800589985598	918.5079764895969	2076.81961352677	77.62926306187265	960.9811555079648	2089.396530753413	1091.465388548797	802.7487815277048	2295.718530902221	43.20742592465604	961.30100155081	2241.162641876985	37.94601042264239	856.4348688795606	2004.503489945532	1076.102076793851	949.1085616318768	2162.527601638958	177.5961707334971	888.7431864305634	2119.384423796631	191.7297176739674	920.1673493356514	2170.728180925422	254.9748546946803	866.8063426847124	2128.608570606532	269.3627725591947	897.6462580659067	2204.588682499329	645.5241778824627	811.4903550314746	2151.073424482264	618.4365764131301	851.6384694810241	2147.418482374892	739.1222276995928	801.3525892991486	2096.778251647574	714.1599524936711	839.4570213464037	2184.795401091759	982.1909343938128	1115.358447112221	1612.166004635303	487.1295628708647	1045.103590368996	1685.047416415899	677.8288373813995	1010.857219778875	1680.073550747124	654.5531816773132	1056.844733068174	1716.199609072442	644.5812978911547	1025.257469808179	2161.182634396558	1076.974451440122	1152.994816662547	1582.733294377581	476.4420438854086	994.1725747212594	1569.413513159184	533.938069176065	1093.909147938012	2017.320305922554	1068.285519743738	1047.608284975352	1779.059147074982	575.0256791507909	1097.809565563571	1793.800794696984	606.5220565537207	1060.120727845961	1861.04028200217	562.202501239523	1116.655062872434	1872.351756035451	597.7707596937539	1078.929553413489	2093.821889650436	598.8644094240032	1163.36040821024	2039.110885063594	590.5210154806078	1115.136558264536	2072.741260087914	706.6776786561435	1164.80235765956	2022.265030810162	699.1352795258518	1117.788195030137	
1692	11.27333333333333	2161.694778439433	1004.046426809156	831.0841216918457	2033.326290426085	34.17667541462886	956.3614404620689	2051.198001934712	54.9080843258742	919.4585378886582	2047.058919916059	78.37675255177062	962.2535822056341	2086.468995752132	1088.824960563433	802.1869559414539	2265.693271256687	43.08408872551595	961.8006187232705	2210.845902109352	39.07021016268573	856.9790353781507	2002.397353493225	1075.13659355855	948.7336239922448	2137.975538216277	177.6042948640261	890.3460979917492	2094.93485068617	193.7464331592653	921.0877913164996	2149.790966551713	254.5745389184344	868.1579041683615	2107.83750845584	270.8905462032451	898.3679108387282	2197.42136885835	642.2859425401829	811.9559270593198	2143.251453469615	616.210013963318	851.8810629227438	2141.977492076415	736.836649010014	801.3960377181809	2090.692218316372	712.8094083106065	839.2458175312696	2182.075842611796	979.3026019594561	1114.522161065678	1633.076599290175	482.022607782299	1045.2728431445	1702.204105966647	674.6973715974257	1015.556787461411	1697.963667058497	650.1582923053365	1060.776429545137	1734.03966492037	641.8243032886062	1028.967335674138	2157.78333209414	1073.601514862156	1152.905684884628	1603.529767047356	472.1392034062084	994.1859031933571	1589.639345637098	526.8023463905728	1095.32859408951	2014.594495632143	1066.872861078181	1046.741901947789	1798.673528038877	571.5748619849626	1100.076726635561	1813.137889224242	603.6148490156285	1062.678603914271	1880.841308711797	558.9788053593277	1118.486579048768	1891.815123322701	595.0967170236571	1081.215622760718	2108.22958459582	598.3418431889855	1164.258422567194	2053.337508423496	587.0661239492179	1117.040884477126	2082.109109249889	704.9679495397402	1165.288840766422	2031.41740811493	694.6385484422598	1119.172969040447	
1693	11.28	2159.277019837744	1002.052759832506	829.1861339042498	2003.283544918302	34.78538216061489	956.8088593389367	2021.179311787585	55.94256144999968	920.0350940964972	2016.964741308597	79.01857235838943	962.9970071317771	2083.577067044474	1087.277150598175	801.5985179489782	2235.42903313834	43.44873589455731	961.8963616129089	2180.437133006262	40.1281208727743	857.2600267593032	2000.560957653719	1074.876860381002	947.962092730848	2112.465363570164	177.7021002353277	891.4646495202848	2069.689080397419	195.5978930903096	921.6760391478583	2127.529700857667	254.145558991435	869.2205451769905	2085.878860057956	272.1514071279721	898.9226644926468	2188.885916469361	638.9396957097679	812.5761381854411	2133.809463319363	614.1931278050646	852.0818630988701	2135.740164864838	734.7178994499282	801.5310457048433	2083.623171451904	711.9404839454277	838.9988388455832	2179.258192194199	977.6233540024753	1114.052904111019	1654.384849980491	474.8943283372695	1045.334098203664	1718.21000603054	669.9824900022776	1020.416850532815	1714.922168365851	644.1418803486209	1064.867445977248	1750.979704828377	637.758116148932	1032.803383854825	2153.19985456629	1071.471894808408	1153.121905960359	1624.789656218179	465.6810641741067	994.0718897723278	1609.926117502285	517.2459164995138	1096.634551736535	2011.980303491398	1066.29577321325	1045.536816893138	1817.952615842172	567.2357266812197	1102.301679561061	1831.810282559729	600.0515210037853	1065.310533976724	1900.377741057959	555.5801082980818	1120.24600747919	1910.651321639399	592.4321619134937	1083.534128202164	2123.113960034258	599.4430132924143	1164.821209374365	2068.32813080944	585.1540715966104	1118.486415482595	2091.753444642975	704.5393080794105	1165.540041211233	2041.003476356607	691.3359501464269	1120.336714639321	
